<mxfile host="app.diagrams.net" modified="2024-02-20T06:33:51.765Z" agent="Mozilla/5.0 (X11; Ubuntu; Linux x86_64; rv:121.0) Gecko/20100101 Firefox/121.0" version="23.1.5" etag="8eO5wjg6MGHE7ZeyuI4k" type="github">
  <diagram name="Page-1" id="UFbd4jp9Xy5DaHVATEkA">
    <mxGraphModel>
      <root>
        <mxCell id="0" />
        <mxCell id="1" parent="0" />
      </root>
    </mxGraphModel>
  </diagram>
</mxfile>
